<svg width="22" height="22" viewBox="0 0 22 22" fill="none" xmlns="http://www.w3.org/2000/svg">
  <path
    d="M19.25 4.125H13.75C13.2163 4.125 12.69 4.24925 12.2127 4.48791C11.7354 4.72656 11.3202 5.07308 11 5.5C10.6798 5.07308 10.2646 4.72656 9.7873 4.48791C9.30998 4.24925 8.78366 4.125 8.25 4.125H2.75C2.38533 4.125 2.03559 4.26987 1.77773 4.52773C1.51987 4.78559 1.375 5.13533 1.375 5.5V16.5C1.375 16.8647 1.51987 17.2144 1.77773 17.4723C2.03559 17.7301 2.38533 17.875 2.75 17.875H8.25C8.79701 17.875 9.32161 18.0923 9.70841 18.4791C10.0952 18.8659 10.3125 19.3905 10.3125 19.9375C10.3125 20.1198 10.3849 20.2947 10.5139 20.4236C10.6428 20.5526 10.8177 20.625 11 20.625C11.1823 20.625 11.3572 20.5526 11.4861 20.4236C11.6151 20.2947 11.6875 20.1198 11.6875 19.9375C11.6875 19.3905 11.9048 18.8659 12.2916 18.4791C12.6784 18.0923 13.203 17.875 13.75 17.875H19.25C19.6147 17.875 19.9644 17.7301 20.2223 17.4723C20.4801 17.2144 20.625 16.8647 20.625 16.5V5.5C20.625 5.13533 20.4801 4.78559 20.2223 4.52773C19.9644 4.26987 19.6147 4.125 19.25 4.125ZM8.25 16.5H2.75V5.5H8.25C8.79701 5.5 9.32161 5.7173 9.70841 6.10409C10.0952 6.49089 10.3125 7.01549 10.3125 7.5625V17.1875C9.71804 16.7402 8.99396 16.4988 8.25 16.5ZM19.25 16.5H13.75C13.006 16.4988 12.282 16.7402 11.6875 17.1875V7.5625C11.6875 7.01549 11.9048 6.49089 12.2916 6.10409C12.6784 5.7173 13.203 5.5 13.75 5.5H19.25V16.5ZM13.75 7.5625H17.1875C17.3698 7.5625 17.5447 7.63493 17.6736 7.76386C17.8026 7.8928 17.875 8.06766 17.875 8.25C17.875 8.43234 17.8026 8.6072 17.6736 8.73614C17.5447 8.86507 17.3698 8.9375 17.1875 8.9375H13.75C13.5677 8.9375 13.3928 8.86507 13.2639 8.73614C13.1349 8.6072 13.0625 8.43234 13.0625 8.25C13.0625 8.06766 13.1349 7.8928 13.2639 7.76386C13.3928 7.63493 13.5677 7.5625 13.75 7.5625ZM17.875 11C17.875 11.1823 17.8026 11.3572 17.6736 11.4861C17.5447 11.6151 17.3698 11.6875 17.1875 11.6875H13.75C13.5677 11.6875 13.3928 11.6151 13.2639 11.4861C13.1349 11.3572 13.0625 11.1823 13.0625 11C13.0625 10.8177 13.1349 10.6428 13.2639 10.5139C13.3928 10.3849 13.5677 10.3125 13.75 10.3125H17.1875C17.3698 10.3125 17.5447 10.3849 17.6736 10.5139C17.8026 10.6428 17.875 10.8177 17.875 11ZM17.875 13.75C17.875 13.9323 17.8026 14.1072 17.6736 14.2361C17.5447 14.3651 17.3698 14.4375 17.1875 14.4375H13.75C13.5677 14.4375 13.3928 14.3651 13.2639 14.2361C13.1349 14.1072 13.0625 13.9323 13.0625 13.75C13.0625 13.5677 13.1349 13.3928 13.2639 13.2639C13.3928 13.1349 13.5677 13.0625 13.75 13.0625H17.1875C17.3698 13.0625 17.5447 13.1349 17.6736 13.2639C17.8026 13.3928 17.875 13.5677 17.875 13.75Z"
    fill="#688897" />
</svg>