<svg width="32" height="32" viewBox="0 0 32 32" fill="none" xmlns="http://www.w3.org/2000/svg">
  <path
    d="M30.9999 15.9997C31.0062 18.3811 30.2336 20.6993 28.7999 22.6009C28.7209 22.706 28.6221 22.7945 28.5089 22.8613C28.3958 22.9281 28.2705 22.972 28.1404 22.9905C28.0103 23.009 27.8778 23.0016 27.7505 22.9689C27.6233 22.9361 27.5037 22.8786 27.3986 22.7997C27.2936 22.7207 27.2051 22.6218 27.1383 22.5087C27.0714 22.3955 27.0275 22.2703 27.0091 22.1402C26.9906 22.0101 26.9979 21.8776 27.0307 21.7503C27.0634 21.6231 27.1209 21.5035 27.1999 21.3984C28.3734 19.8437 29.0056 17.9475 28.9999 15.9997C28.9999 13.6127 28.0517 11.3235 26.3638 9.63571C24.676 7.94788 22.3868 6.99967 19.9999 6.99967C17.6129 6.99967 15.3238 7.94788 13.6359 9.63571C11.9481 11.3235 10.9999 13.6127 10.9999 15.9997C10.9999 16.2649 10.8945 16.5192 10.707 16.7068C10.5195 16.8943 10.2651 16.9997 9.99988 16.9997C9.73467 16.9997 9.48031 16.8943 9.29278 16.7068C9.10524 16.5192 8.99988 16.2649 8.99988 15.9997C8.9994 14.9905 9.13778 13.9861 9.41113 13.0147C9.27489 12.9997 9.13738 12.9997 8.99988 12.9997C7.40859 12.9997 5.88246 13.6318 4.75724 14.757C3.63203 15.8822 2.99988 17.4084 2.99988 18.9997C2.99988 20.591 3.63203 22.1171 4.75724 23.2423C5.88246 24.3675 7.40859 24.9997 8.99988 24.9997H11.9999C12.2651 24.9997 12.5195 25.105 12.707 25.2926C12.8945 25.4801 12.9999 25.7345 12.9999 25.9997C12.9999 26.2649 12.8945 26.5192 12.707 26.7068C12.5195 26.8943 12.2651 26.9997 11.9999 26.9997H8.99988C7.9001 26.9999 6.81208 26.7734 5.80377 26.3343C4.79546 25.8952 3.88853 25.2529 3.1396 24.4475C2.39068 23.6421 1.81585 22.691 1.45103 21.6535C1.08621 20.6159 0.939225 19.5144 1.01926 18.4175C1.09929 17.3206 1.40462 16.252 1.91619 15.2785C2.42775 14.3049 3.13455 13.4473 3.99245 12.7592C4.85035 12.071 5.84092 11.5672 6.90229 11.2791C7.96366 10.991 9.07304 10.9248 10.1611 11.0847C11.2691 8.86862 13.0928 7.09151 15.3368 6.04121C17.5808 4.99091 20.1136 4.72892 22.525 5.29768C24.9365 5.86644 27.0853 7.23263 28.6234 9.17498C30.1616 11.1173 30.9989 13.5221 30.9999 15.9997ZM19.7074 15.2922C19.6145 15.1992 19.5042 15.1254 19.3828 15.0751C19.2614 15.0248 19.1313 14.9989 18.9999 14.9989C18.8685 14.9989 18.7383 15.0248 18.6169 15.0751C18.4955 15.1254 18.3853 15.1992 18.2924 15.2922L14.2924 19.2922C14.1995 19.3851 14.1258 19.4954 14.0755 19.6168C14.0252 19.7382 13.9993 19.8683 13.9993 19.9997C13.9993 20.1311 14.0252 20.2612 14.0755 20.3826C14.1258 20.504 14.1995 20.6143 14.2924 20.7072C14.48 20.8948 14.7345 21.0002 14.9999 21.0002C15.1313 21.0002 15.2614 20.9743 15.3828 20.9241C15.5042 20.8738 15.6145 20.8001 15.7074 20.7072L17.9999 18.4134V25.9997C17.9999 26.2649 18.1052 26.5192 18.2928 26.7068C18.4803 26.8943 18.7347 26.9997 18.9999 26.9997C19.2651 26.9997 19.5195 26.8943 19.707 26.7068C19.8945 26.5192 19.9999 26.2649 19.9999 25.9997V18.4134L22.2924 20.7072C22.3853 20.8001 22.4956 20.8738 22.617 20.9241C22.7384 20.9743 22.8685 21.0002 22.9999 21.0002C23.1313 21.0002 23.2614 20.9743 23.3828 20.9241C23.5042 20.8738 23.6145 20.8001 23.7074 20.7072C23.8003 20.6143 23.874 20.504 23.9243 20.3826C23.9746 20.2612 24.0004 20.1311 24.0004 19.9997C24.0004 19.8683 23.9746 19.7382 23.9243 19.6168C23.874 19.4954 23.8003 19.3851 23.7074 19.2922L19.7074 15.2922Z"
    fill="#06425D" />
</svg>