<svg width="36" height="36" viewBox="0 0 36 36" fill="none" xmlns="http://www.w3.org/2000/svg">
  <path
    d="M28.3811 26.8189C28.4837 26.9215 28.565 27.0433 28.6205 27.1773C28.6761 27.3113 28.7046 27.4549 28.7046 27.6C28.7046 27.7451 28.6761 27.8887 28.6205 28.0227C28.565 28.1567 28.4837 28.2785 28.3811 28.3811C28.2785 28.4837 28.1567 28.565 28.0227 28.6205C27.8887 28.6761 27.7451 28.7046 27.6 28.7046C27.4549 28.7046 27.3113 28.6761 27.1773 28.6205C27.0433 28.565 26.9215 28.4837 26.8189 28.3811L17.6638 19.2246L8.50877 28.3811C8.30161 28.5883 8.02065 28.7046 7.72768 28.7046C7.43471 28.7046 7.15374 28.5883 6.94659 28.3811C6.73943 28.1739 6.62305 27.893 6.62305 27.6C6.62305 27.307 6.73943 27.0261 6.94659 26.8189L16.103 17.6638L6.94659 8.50877C6.73943 8.30161 6.62305 8.02065 6.62305 7.72768C6.62305 7.43471 6.73943 7.15374 6.94659 6.94659C7.15374 6.73943 7.43471 6.62305 7.72768 6.62305C8.02065 6.62305 8.30161 6.73943 8.50877 6.94659L17.6638 16.103L26.8189 6.94659C27.0261 6.73943 27.307 6.62305 27.6 6.62305C27.893 6.62305 28.1739 6.73943 28.3811 6.94659C28.5883 7.15374 28.7046 7.43471 28.7046 7.72768C28.7046 8.02065 28.5883 8.30161 28.3811 8.50877L19.2246 17.6638L28.3811 26.8189Z"
    fill="#C3CFD5" />
</svg>