<svg width="21" height="21" viewBox="0 0 21 21" fill="none" xmlns="http://www.w3.org/2000/svg">
  <path
    d="M14.4375 19.0314C14.4375 19.2054 14.3683 19.3724 14.2453 19.4954C14.1222 19.6185 13.9553 19.6876 13.7812 19.6876H7.21874C7.04469 19.6876 6.87777 19.6185 6.7547 19.4954C6.63163 19.3724 6.56249 19.2054 6.56249 19.0314C6.56249 18.8573 6.63163 18.6904 6.7547 18.5674C6.87777 18.4443 7.04469 18.3751 7.21874 18.3751H13.7812C13.9553 18.3751 14.1222 18.4443 14.2453 18.5674C14.3683 18.6904 14.4375 18.8573 14.4375 19.0314ZM17.7187 8.53139C17.7216 9.62539 17.4744 10.7056 16.9962 11.6895C16.5179 12.6735 15.8212 13.5351 14.9592 14.2088C14.798 14.3323 14.6672 14.4911 14.5768 14.6729C14.4864 14.8548 14.4387 15.0549 14.4375 15.258V15.7501C14.4375 16.0982 14.2992 16.4321 14.0531 16.6782C13.8069 16.9244 13.4731 17.0626 13.125 17.0626H7.87499C7.52689 17.0626 7.19305 16.9244 6.94691 16.6782C6.70077 16.4321 6.56249 16.0982 6.56249 15.7501V15.258C6.56235 15.0573 6.51621 14.8594 6.42762 14.6793C6.33902 14.4993 6.21033 14.342 6.05143 14.2194C5.19169 13.5499 4.49551 12.6935 4.01558 11.7152C3.53564 10.7368 3.28453 9.66212 3.28124 8.57241C3.25991 4.66198 6.41975 1.40698 10.3261 1.31264C11.2886 1.28945 12.246 1.45903 13.142 1.81141C14.038 2.16378 14.8545 2.69184 15.5433 3.36448C16.2322 4.03713 16.7795 4.84078 17.1531 5.72813C17.5267 6.61548 17.719 7.5686 17.7187 8.53139ZM16.4062 8.53139C16.4065 7.74361 16.2491 6.96375 15.9434 6.23771C15.6377 5.51166 15.1898 4.85411 14.6262 4.30376C14.0625 3.7534 13.3945 3.32137 12.6613 3.03309C11.9282 2.74481 11.1448 2.6061 10.3573 2.62514C7.15803 2.70061 4.57651 5.36417 4.59374 8.56338C4.59667 9.45473 4.80233 10.3337 5.19515 11.1339C5.58797 11.934 6.15765 12.6343 6.86108 13.1817C7.17726 13.4275 7.43301 13.7424 7.60875 14.1023C7.78449 14.4622 7.87556 14.8575 7.87499 15.258V15.7501H9.84374V12.0842L7.41069 9.65194C7.28755 9.5288 7.21837 9.36179 7.21837 9.18764C7.21837 9.0135 7.28755 8.84648 7.41069 8.72334C7.53383 8.60021 7.70084 8.53103 7.87499 8.53103C8.04913 8.53103 8.21614 8.60021 8.33928 8.72334L10.5 10.8849L12.6607 8.72334C12.7217 8.66237 12.794 8.61401 12.8737 8.58101C12.9534 8.54801 13.0388 8.53103 13.125 8.53103C13.2112 8.53103 13.2966 8.54801 13.3763 8.58101C13.4559 8.61401 13.5283 8.66237 13.5893 8.72334C13.6503 8.78432 13.6986 8.8567 13.7316 8.93637C13.7646 9.01603 13.7816 9.10141 13.7816 9.18764C13.7816 9.27387 13.7646 9.35925 13.7316 9.43892C13.6986 9.51858 13.6503 9.59097 13.5893 9.65194L11.1562 12.0842V15.7501H13.125V15.258C13.1257 14.8563 13.2183 14.4601 13.3956 14.0997C13.5728 13.7393 13.8302 13.4242 14.1479 13.1785C14.8535 12.6271 15.4237 11.9218 15.8151 11.1164C16.2065 10.311 16.4087 9.42684 16.4062 8.53139Z"
    fill="#688897" />
</svg>