<svg width="322" height="126" viewBox="0 0 322 126" fill="none" xmlns="http://www.w3.org/2000/svg">
  <path
    d="M217.534 48.886C214.478 51.745 211.798 56.4443 211.798 62.9732C211.798 66.1754 212.382 69.083 213.766 71.7649L213.783 71.7583L220.686 69.6547C220.59 69.4953 220.497 69.3289 220.411 69.1626C220.204 68.778 220.019 68.3723 219.857 67.9532C219.296 66.5252 218.98 64.8966 218.98 63.0876C218.98 56.4443 223.642 50.5044 230.824 50.5044C232.111 50.5044 236.172 50.7746 239.438 54.5314C239.444 54.538 239.448 54.5452 239.455 54.5521V46.3492C236.185 44.5678 233.185 44.1346 230.666 44.1346C225.576 44.1346 221.127 45.4827 217.534 48.886ZM270.35 44.9456V54.5139H270.357L277.315 52.3894V44.9456H270.35ZM248.264 44.9456V61.2477L248.299 61.2369L255.233 59.1231V44.9456H248.264ZM183.621 44.9456V80.9522H183.628L183.697 80.9312L203.436 74.9118L203.456 74.9049H190.589V65.0801H202.919V59.033H190.589V50.9896H203.456V44.9456H183.621ZM150.138 44.9456V50.9896H159.993V80.9522H166.962V50.9896H176.818V44.9456H150.138ZM135.258 44.9456V67.5653C135.258 70.3165 134.342 71.994 133.537 72.9088C132.522 74.1495 130.643 75.3901 127.856 75.3901C127.487 75.3901 127.137 75.3694 126.803 75.3276C124.59 75.0643 123.059 73.9864 122.174 72.9088C121.372 71.994 120.457 70.3165 120.457 67.5653V44.9456H113.489V66.969C113.489 70.3723 114.029 73.827 116.169 76.5788C117.938 78.9177 120.622 80.4914 123.626 81.2471C123.723 81.2711 123.819 81.2954 123.919 81.3161C123.926 81.3197 123.929 81.3197 123.933 81.3197C125.203 81.6143 126.527 81.7629 127.856 81.7629C132.467 81.7629 136.972 79.9785 139.545 76.5788C141.686 73.827 142.226 70.3723 142.226 66.969V44.9456H135.258ZM96.6232 44.9456L96.6026 44.9699L83.4912 60.1662V44.9456H76.5229V80.9522H83.4912V65.6208L84.2965 64.8098L96.9845 80.9312L96.9982 80.9522H106.221L90.3015 61.5695L105.416 44.9456H96.6232ZM44.6846 44.9456V80.9522H51.6499V67.6169H56.1508C60.2837 67.6169 63.2294 66.4282 65.2118 64.4321C67.944 61.6839 68.1608 57.796 68.1608 56.392C68.1608 53.7966 67.4106 50.2897 64.5132 47.6974C61.8907 45.3752 59.1036 44.9456 55.0807 44.9456H44.6846ZM51.6499 50.9896H54.0622C55.7241 50.9896 57.5446 51.0971 58.9969 52.1227C60.0118 52.8782 60.9754 54.2299 60.9754 56.226C60.9754 57.796 60.332 59.4143 59.0482 60.4364C58.7145 60.6895 58.3705 60.8871 58.0228 61.036C57.9745 61.0567 57.9232 61.0774 57.8749 61.0984C57.5857 61.2161 57.2933 61.3029 57.0044 61.3687C56.9495 61.3825 56.8908 61.3963 56.8356 61.4032C56.01 61.5695 55.1976 61.5695 54.4889 61.5695H51.6499V50.9896ZM277.316 54.3575L270.354 56.4761L262.485 58.8805L248.298 63.2089L221.854 71.2655C224.186 73.9699 227.017 75.4682 230.38 76.1164C233.481 76.7163 236.062 76.2869 237.637 75.8576C238.734 75.5585 239.343 75.2595 239.301 75.3078H239.308L248.263 71.2166V80.9465H255.226L255.232 68.0387L270.347 61.139V80.9465H277.31V57.9539L300.985 47.1443L277.316 54.3575ZM203.438 76.8829L194.787 79.5176L190.15 80.9324L131.359 98.8577L187.569 98.9346L228.359 80.3121C225.148 80.4028 221.522 79.148 218.144 76.7785C216.892 75.9005 215.521 74.562 214.767 73.4262L203.438 76.8829Z"
    fill="url(#paint0_linear_22_2638)" />
  <defs>
    <linearGradient id="paint0_linear_22_2638" x1="52.5441" y1="102.698" x2="290.041" y2="16.8619"
      gradientUnits="userSpaceOnUse">
      <stop stop-color="#D7261C" />
      <stop offset="0.127011" stop-color="#D7261C" />
      <stop offset="0.298883" stop-color="#B70B61" />
      <stop offset="0.576801" stop-color="#003F8C" />
      <stop offset="0.608939" stop-color="#003F8C" />
      <stop offset="0.921431" stop-color="#003F8C" />
      <stop offset="1" stop-color="#173267" />
    </linearGradient>
  </defs>
</svg>