<svg width="35" height="35" viewBox="0 0 35 35" fill="none" xmlns="http://www.w3.org/2000/svg">
  <path
    d="M19.3676 18.2738L13.8988 23.7426C13.7972 23.8442 13.6766 23.9248 13.5438 23.9798C13.411 24.0348 13.2687 24.0631 13.125 24.0631C12.9813 24.0631 12.839 24.0348 12.7062 23.9798C12.5734 23.9248 12.4528 23.8442 12.3512 23.7426C12.2496 23.641 12.1689 23.5203 12.1139 23.3875C12.0589 23.2548 12.0306 23.1125 12.0306 22.9688C12.0306 22.825 12.0589 22.6827 12.1139 22.55C12.1689 22.4172 12.2496 22.2965 12.3512 22.1949L15.9537 18.5938H3.28125C2.99117 18.5938 2.71297 18.4785 2.50785 18.2734C2.30273 18.0683 2.1875 17.7901 2.1875 17.5C2.1875 17.2099 2.30273 16.9317 2.50785 16.7266C2.71297 16.5215 2.99117 16.4062 3.28125 16.4062H15.9537L12.3512 12.8051C12.1459 12.5998 12.0306 12.3215 12.0306 12.0312C12.0306 11.741 12.1459 11.4627 12.3512 11.2574C12.5564 11.0522 12.8348 10.9369 13.125 10.9369C13.4152 10.9369 13.6936 11.0522 13.8988 11.2574L19.3676 16.7262C19.4693 16.8278 19.5499 16.9484 19.605 17.0812C19.66 17.2139 19.6884 17.3563 19.6884 17.5C19.6884 17.6437 19.66 17.7861 19.605 17.9188C19.5499 18.0516 19.4693 18.1722 19.3676 18.2738ZM26.25 4.375H18.5938C18.3037 4.375 18.0255 4.49023 17.8204 4.69535C17.6152 4.90047 17.5 5.17867 17.5 5.46875C17.5 5.75883 17.6152 6.03703 17.8204 6.24215C18.0255 6.44727 18.3037 6.5625 18.5938 6.5625H26.25V28.4375H18.5938C18.3037 28.4375 18.0255 28.5527 17.8204 28.7579C17.6152 28.963 17.5 29.2412 17.5 29.5312C17.5 29.8213 17.6152 30.0995 17.8204 30.3046C18.0255 30.5098 18.3037 30.625 18.5938 30.625H26.25C26.8302 30.625 27.3866 30.3945 27.7968 29.9843C28.207 29.5741 28.4375 29.0177 28.4375 28.4375V6.5625C28.4375 5.98234 28.207 5.42594 27.7968 5.0157C27.3866 4.60547 26.8302 4.375 26.25 4.375Z"
    fill="white" />
</svg>