<svg width="39" height="39" viewBox="0 0 39 39" fill="none" xmlns="http://www.w3.org/2000/svg">
  <path
    d="M36.4405 14.8212C36.2929 14.3663 36.0147 13.9648 35.6406 13.6669C35.2665 13.3689 34.813 13.1876 34.3366 13.1454L25.2889 12.3654L21.7423 3.93169C21.5577 3.48915 21.2462 3.11115 20.8472 2.84526C20.4481 2.57937 19.9794 2.4375 19.4998 2.4375C19.0203 2.4375 18.5515 2.57937 18.1525 2.84526C17.7534 3.11115 17.442 3.48915 17.2573 3.93169L13.7214 12.3654L4.66308 13.15C4.18478 13.1902 3.72898 13.3707 3.35286 13.6689C2.97674 13.9671 2.69703 14.3697 2.54881 14.8263C2.40059 15.2828 2.39046 15.7729 2.51969 16.2352C2.64892 16.6975 2.91175 17.1113 3.27523 17.4248L10.1475 23.4302L8.08777 32.3484C7.97886 32.8151 8.00993 33.3035 8.17711 33.7526C8.3443 34.2018 8.64016 34.5916 9.02772 34.8735C9.41528 35.1554 9.87734 35.3168 10.3561 35.3375C10.8349 35.3583 11.3092 35.2374 11.7196 34.99L19.4892 30.2673L27.2755 34.99C27.6859 35.2374 28.1602 35.3583 28.639 35.3375C29.1178 35.3168 29.5798 35.1554 29.9674 34.8735C30.3549 34.5916 30.6508 34.2018 30.818 33.7526C30.9852 33.3035 31.0163 32.8151 30.9073 32.3484L28.8492 23.421L35.7199 17.4248C36.0833 17.1102 36.3456 16.6952 36.4738 16.232C36.6021 15.7687 36.5904 15.2779 36.4405 14.8212ZM34.1218 15.5829L27.2511 21.5792C26.9167 21.8701 26.6679 22.2466 26.5316 22.6683C26.3952 23.09 26.3764 23.5409 26.4772 23.9725L28.5414 32.9059L20.7612 28.1833C20.3817 27.9521 19.9458 27.8299 19.5014 27.8299C19.0569 27.8299 18.6211 27.9521 18.2415 28.1833L10.4719 32.9059L12.5225 23.9786C12.6233 23.547 12.6045 23.0961 12.4681 22.6744C12.3317 22.2527 12.083 21.8762 11.7486 21.5853L4.87484 15.5921C4.87428 15.5875 4.87428 15.5829 4.87484 15.5784L13.9302 14.7953C14.3723 14.7564 14.7953 14.5974 15.1537 14.3357C15.5121 14.0739 15.7923 13.7192 15.9639 13.31L19.4998 4.88688L23.0342 13.31C23.2059 13.7192 23.486 14.0739 23.8444 14.3357C24.2028 14.5974 24.6259 14.7564 25.068 14.7953L34.1248 15.5784C34.1248 15.5784 34.1248 15.5875 34.1248 15.589L34.1218 15.5829Z"
    fill="white" />
</svg>