<svg width="19" height="19" viewBox="0 0 19 19" fill="none" xmlns="http://www.w3.org/2000/svg">
  <path
    d="M18.75 7.03125C18.75 7.23845 18.6677 7.43716 18.5212 7.58368C18.3747 7.73019 18.176 7.8125 17.9688 7.8125C17.7615 7.8125 17.5628 7.73019 17.4163 7.58368C17.2698 7.43716 17.1875 7.23845 17.1875 7.03125V2.66797L10.71 9.14648C10.5634 9.29308 10.3645 9.37543 10.1572 9.37543C9.94991 9.37543 9.75109 9.29308 9.60449 9.14648C9.4579 8.99989 9.37554 8.80107 9.37554 8.59375C9.37554 8.38643 9.4579 8.18761 9.60449 8.04102L16.082 1.5625H11.7188C11.5115 1.5625 11.3128 1.48019 11.1663 1.33368C11.0198 1.18716 10.9375 0.98845 10.9375 0.78125C10.9375 0.57405 11.0198 0.375336 11.1663 0.228823C11.3128 0.0823102 11.5115 0 11.7188 0H17.9688C18.176 0 18.3747 0.0823102 18.5212 0.228823C18.6677 0.375336 18.75 0.57405 18.75 0.78125V7.03125ZM14.8438 9.375C14.6365 9.375 14.4378 9.45731 14.2913 9.60382C14.1448 9.75033 14.0625 9.94905 14.0625 10.1562V17.1875H1.5625V4.6875H8.59375C8.80095 4.6875 8.99966 4.60519 9.14618 4.45868C9.29269 4.31216 9.375 4.11345 9.375 3.90625C9.375 3.69905 9.29269 3.50034 9.14618 3.35382C8.99966 3.20731 8.80095 3.125 8.59375 3.125H1.5625C1.1481 3.125 0.750671 3.28962 0.457646 3.58265C0.16462 3.87567 0 4.2731 0 4.6875V17.1875C0 17.6019 0.16462 17.9993 0.457646 18.2924C0.750671 18.5854 1.1481 18.75 1.5625 18.75H14.0625C14.4769 18.75 14.8743 18.5854 15.1674 18.2924C15.4604 17.9993 15.625 17.6019 15.625 17.1875V10.1562C15.625 9.94905 15.5427 9.75033 15.3962 9.60382C15.2497 9.45731 15.051 9.375 14.8438 9.375Z"
    fill="white" />
</svg>