<svg width="40" height="40" viewBox="0 0 40 40" fill="none" xmlns="http://www.w3.org/2000/svg">
  <path
    d="M20 3.75C16.7861 3.75 13.6443 4.70305 10.972 6.48862C8.29969 8.27419 6.21689 10.8121 4.98696 13.7814C3.75704 16.7507 3.43524 20.018 4.06225 23.1702C4.68926 26.3224 6.23692 29.2179 8.50952 31.4905C10.7821 33.7631 13.6776 35.3107 16.8298 35.9378C19.982 36.5648 23.2493 36.243 26.2186 35.013C29.1879 33.7831 31.7258 31.7003 33.5114 29.028C35.297 26.3557 36.25 23.2139 36.25 20C36.2455 15.6916 34.5319 11.561 31.4855 8.51454C28.439 5.46806 24.3084 3.75455 20 3.75ZM20 33.75C17.2805 33.75 14.6221 32.9436 12.3609 31.4327C10.0997 29.9218 8.33737 27.7744 7.29666 25.2619C6.25596 22.7494 5.98366 19.9847 6.51421 17.3175C7.04476 14.6503 8.35432 12.2003 10.2773 10.2773C12.2003 8.35431 14.6503 7.04475 17.3175 6.5142C19.9848 5.98366 22.7494 6.25595 25.2619 7.29666C27.7744 8.33736 29.9218 10.0997 31.4327 12.3609C32.9436 14.6221 33.75 17.2805 33.75 20C33.7459 23.6455 32.2959 27.1404 29.7182 29.7182C27.1404 32.2959 23.6455 33.7459 20 33.75ZM22.5 27.5C22.5 27.8315 22.3683 28.1495 22.1339 28.3839C21.8995 28.6183 21.5815 28.75 21.25 28.75C20.587 28.75 19.9511 28.4866 19.4822 28.0178C19.0134 27.5489 18.75 26.913 18.75 26.25V20C18.4185 20 18.1005 19.8683 17.8661 19.6339C17.6317 19.3995 17.5 19.0815 17.5 18.75C17.5 18.4185 17.6317 18.1005 17.8661 17.8661C18.1005 17.6317 18.4185 17.5 18.75 17.5C19.413 17.5 20.0489 17.7634 20.5178 18.2322C20.9866 18.7011 21.25 19.337 21.25 20V26.25C21.5815 26.25 21.8995 26.3817 22.1339 26.6161C22.3683 26.8505 22.5 27.1685 22.5 27.5ZM17.5 13.125C17.5 12.7542 17.61 12.3916 17.816 12.0833C18.022 11.775 18.3149 11.5346 18.6575 11.3927C19.0001 11.2508 19.3771 11.2137 19.7408 11.286C20.1045 11.3584 20.4386 11.537 20.7008 11.7992C20.9631 12.0614 21.1416 12.3955 21.214 12.7592C21.2863 13.1229 21.2492 13.4999 21.1073 13.8425C20.9654 14.1851 20.725 14.478 20.4167 14.684C20.1084 14.89 19.7458 15 19.375 15C18.8777 15 18.4008 14.8025 18.0492 14.4508C17.6976 14.0992 17.5 13.6223 17.5 13.125Z"
    fill="white" />
</svg>