<?xml version="1.0"?>
<svg width="32" height="32" xmlns="http://www.w3.org/2000/svg" xmlns:svg="http://www.w3.org/2000/svg">
 <g class="layer">
  <title>Layer 1</title>
  <g id="svg_1" transform="rotate(180 16 16)">
   <path d="m19,4l7,0c0.53,0 1.04,0.21 1.41,0.59c0.38,0.37 0.59,0.88 0.59,1.41l0,20c0,0.53 -0.21,1.04 -0.59,1.41c-0.37,0.38 -0.88,0.59 -1.41,0.59l-7,0c-0.27,0 -0.52,-0.11 -0.71,-0.29c-0.18,-0.19 -0.29,-0.44 -0.29,-0.71c0,-0.27 0.11,-0.52 0.29,-0.71c0.19,-0.18 0.44,-0.29 0.71,-0.29l7,0l0,-20l-7,0c-0.27,0 -0.52,-0.11 -0.71,-0.29c-0.18,-0.19 -0.29,-0.44 -0.29,-0.71c0,-0.27 0.11,-0.52 0.29,-0.71c0.19,-0.18 0.44,-0.29 0.71,-0.29zm-8.29,16.29l-3.3,-3.29l11.59,0c0.27,0 0.52,-0.11 0.71,-0.29c0.18,-0.19 0.29,-0.44 0.29,-0.71c0,-0.27 -0.11,-0.52 -0.29,-0.71c-0.19,-0.18 -0.44,-0.29 -0.71,-0.29l-11.59,0l3.3,-3.29c0.18,-0.19 0.29,-0.44 0.29,-0.71c0,-0.27 -0.11,-0.52 -0.29,-0.71c-0.19,-0.19 -0.44,-0.29 -0.71,-0.29c-0.27,0 -0.52,0.1 -0.71,0.29l-5,5c-0.09,0.1 -0.16,0.21 -0.21,0.33c-0.06,0.12 -0.08,0.25 -0.08,0.38c0,0.13 0.02,0.26 0.08,0.38c0.05,0.12 0.12,0.23 0.21,0.33l5,5c0.19,0.19 0.44,0.29 0.71,0.29c0.27,0 0.52,-0.1 0.71,-0.29c0.18,-0.19 0.29,-0.44 0.29,-0.71c0,-0.27 -0.11,-0.52 -0.29,-0.71z" fill="#ffffff" id="svg_2"/>
  </g>
 </g>
</svg>