
<svg width="32" height="32" viewBox="0 0 32 32" fill="none" xmlns="http://www.w3.org/2000/svg">
  <g transform="rotate(180, 16, 16)">
    <path
      d="M18.9998 4L25.9998 4C26.5302 4 27.0389 4.21071 27.414 4.58579C27.7891 4.96086 27.9998 5.46957 27.9998 6L27.9998 26C27.9998 26.5304 27.7891 27.0391 27.414 27.4142C27.0389 27.7893 26.5302 28 25.9998 28L18.9998 28C18.7346 28 18.4802 27.8946 18.2927 27.7071C18.1052 27.5196 17.9998 27.2652 17.9998 27C17.9998 26.7348 18.1052 26.4804 18.2927 26.2929C18.4802 26.1054 18.7346 26 18.9998 26L25.9998 26L25.9998 6L18.9998 6C18.7346 6 18.4802 5.89464 18.2927 5.70711C18.1052 5.51957 17.9998 5.26522 17.9998 5C17.9998 4.73478 18.1052 4.48043 18.2927 4.29289C18.4802 4.10536 18.7346 4 18.9998 4ZM10.7073 20.2925L7.41356 17L18.9998 17C19.265 17 19.5194 16.8946 19.7069 16.7071C19.8945 16.5196 19.9998 16.2652 19.9998 16C19.9998 15.7348 19.8945 15.4804 19.7069 15.2929C19.5194 15.1054 19.265 15 18.9998 15L7.41356 15L10.7073 11.7075C10.895 11.5199 11.0004 11.2654 11.0004 11C11.0004 10.7346 10.895 10.4801 10.7073 10.2925C10.5197 10.1049 10.2652 9.99944 9.99981 9.99944C9.73445 9.99944 9.47995 10.1049 9.29231 10.2925L4.29231 15.2925C4.19933 15.3854 4.12557 15.4957 4.07525 15.6171C4.02493 15.7385 3.99902 15.8686 3.99902 16C3.99902 16.1314 4.02493 16.2615 4.07525 16.3829C4.12557 16.5043 4.19933 16.6146 4.29231 16.7075L9.29231 21.7075C9.47995 21.8951 9.73445 22.0006 9.99981 22.0006C10.2652 22.0006 10.5197 21.8951 10.7073 21.7075C10.895 21.5199 11.0004 21.2654 11.0004 21C11.0004 20.7346 10.895 20.4801 10.7073 20.2925Z"
      fill="rgb(37, 85, 141)" />
  </g>
</svg>
