<!DOCTYPE svg PUBLIC "-//W3C//DTD SVG 1.1//EN" "http://www.w3.org/Graphics/SVG/1.1/DTD/svg11.dtd">
<!-- Uploaded to: SVG Repo, www.svgrepo.com, Transformed by: SVG Repo Mixer Tools -->
<svg fill="#ffffff" version="1.1" baseProfile="tiny" id="Layer_1" xmlns:x="&amp;ns_extend;" xmlns:i="&amp;ns_ai;" xmlns:graph="&amp;ns_graphs;" xmlns="http://www.w3.org/2000/svg" xmlns:xlink="http://www.w3.org/1999/xlink" xmlns:a="http://ns.adobe.com/AdobeSVGViewerExtensions/3.0/" width="800px" height="800px" viewBox="0 0 42 42" xml:space="preserve" stroke="#ffffff">
<g id="SVGRepo_bgCarrier" stroke-width="0"/>
<g id="SVGRepo_tracerCarrier" stroke-linecap="round" stroke-linejoin="round"/>
<g id="SVGRepo_iconCarrier"> <path d="M2.68,15.726c-0.1,0.039-0.16,0.09-0.18,0.149L2.68,15.726z M2.5,15.875v0.021v20.606c0,2.509,0.49,2.998,3,2.998h7 c2.51,0,3-0.461,3-3v-8h9v8.031c0,2.51,0.51,2.979,3,2.969c0.04,0.031,7,0,7,0c2.529,0,3-0.526,3-2.997V16.495 c0-0.08-0.09-0.15-0.27-0.23L20,1.5L2.68,15.726L2.5,15.875z"/> </g>
</svg>