<svg width="39" height="39" viewBox="0 0 39 39" fill="none" xmlns="http://www.w3.org/2000/svg">
  <path
    d="M37.6761 19.0064C37.6228 18.8861 36.3324 16.0235 33.4638 13.1549C29.6415 9.33258 24.8137 7.3125 19.5 7.3125C14.1862 7.3125 9.35846 9.33258 5.53616 13.1549C2.66752 16.0235 1.37108 18.8906 1.32385 19.0064C1.25456 19.1623 1.21875 19.3309 1.21875 19.5015C1.21875 19.6721 1.25456 19.8408 1.32385 19.9966C1.37717 20.117 2.66752 22.978 5.53616 25.8466C9.35846 29.6674 14.1862 31.6875 19.5 31.6875C24.8137 31.6875 29.6415 29.6674 33.4638 25.8466C36.3324 22.978 37.6228 20.117 37.6761 19.9966C37.7454 19.8408 37.7812 19.6721 37.7812 19.5015C37.7812 19.3309 37.7454 19.1623 37.6761 19.0064ZM19.5 29.25C14.8108 29.25 10.7143 27.5453 7.32315 24.1846C5.93171 22.8008 4.74791 21.2229 3.80858 19.5C4.74766 17.7769 5.93148 16.199 7.32315 14.8154C10.7143 11.4547 14.8108 9.75 19.5 9.75C24.1891 9.75 28.2856 11.4547 31.6768 14.8154C33.071 16.1986 34.2574 17.7766 35.199 19.5C34.1006 21.5505 29.3155 29.25 19.5 29.25ZM19.5 12.1875C18.0537 12.1875 16.6399 12.6164 15.4374 13.4199C14.2348 14.2234 13.2976 15.3654 12.7441 16.7016C12.1906 18.0378 12.0458 19.5081 12.328 20.9266C12.6101 22.3451 13.3066 23.648 14.3293 24.6707C15.3519 25.6934 16.6549 26.3898 18.0734 26.672C19.4919 26.9541 20.9622 26.8093 22.2984 26.2559C23.6345 25.7024 24.7766 24.7651 25.5801 23.5626C26.3836 22.3601 26.8125 20.9463 26.8125 19.5C26.8105 17.5612 26.0394 15.7024 24.6685 14.3315C23.2976 12.9606 21.4388 12.1895 19.5 12.1875ZM19.5 24.375C18.5358 24.375 17.5933 24.0891 16.7916 23.5534C15.9899 23.0177 15.365 22.2564 14.9961 21.3656C14.6271 20.4748 14.5306 19.4946 14.7187 18.5489C14.9068 17.6033 15.3711 16.7346 16.0528 16.0529C16.7346 15.3711 17.6033 14.9068 18.5489 14.7187C19.4946 14.5306 20.4748 14.6271 21.3656 14.9961C22.2564 15.3651 23.0177 15.9899 23.5534 16.7916C24.0891 17.5933 24.375 18.5358 24.375 19.5C24.375 20.7929 23.8614 22.0329 22.9471 22.9471C22.0329 23.8614 20.7929 24.375 19.5 24.375Z"
    fill="#A5B7C0" />
</svg>