<svg width="40" height="40" viewBox="0 0 40 40" fill="none" xmlns="http://www.w3.org/2000/svg">
  <path
    d="M35.2154 33.4797L27.5379 25.8037C29.7632 23.1321 30.8728 19.7055 30.6359 16.2366C30.3991 12.7678 28.8341 9.52378 26.2663 7.17946C23.6986 4.83513 20.326 3.57098 16.8499 3.64998C13.3739 3.72897 10.0622 5.14504 7.6036 7.6036C5.14504 10.0622 3.72897 13.3739 3.64998 16.8499C3.57098 20.326 4.83513 23.6986 7.17946 26.2663C9.52378 28.8341 12.7678 30.3991 16.2366 30.6359C19.7055 30.8728 23.1321 29.7632 25.8037 27.5379L33.4797 35.2154C33.5936 35.3294 33.7289 35.4198 33.8778 35.4815C34.0268 35.5432 34.1864 35.5749 34.3475 35.5749C34.5087 35.5749 34.6683 35.5432 34.8172 35.4815C34.9661 35.4198 35.1014 35.3294 35.2154 35.2154C35.3294 35.1014 35.4198 34.9661 35.4815 34.8172C35.5432 34.6683 35.5749 34.5087 35.5749 34.3475C35.5749 34.1864 35.5432 34.0268 35.4815 33.8778C35.4198 33.7289 35.3294 33.5936 35.2154 33.4797ZM6.13375 17.1739C6.13375 14.9904 6.78124 12.8559 7.99436 11.0403C9.20747 9.22478 10.9317 7.80974 12.949 6.97413C14.9664 6.13853 17.1862 5.9199 19.3278 6.34588C21.4693 6.77187 23.4365 7.82335 24.9805 9.36734C26.5245 10.9113 27.576 12.8785 28.002 15.0201C28.428 17.1617 28.2093 19.3815 27.3737 21.3988C26.5381 23.4161 25.1231 25.1404 23.3075 26.3535C21.492 27.5666 19.3575 28.2141 17.1739 28.2141C14.2469 28.2109 11.4407 27.0467 9.37093 24.9769C7.3012 22.9072 6.137 20.101 6.13375 17.1739Z"
    fill="#028CCA" />
</svg>