<svg width="26" height="26" viewBox="0 0 26 26" fill="none" xmlns="http://www.w3.org/2000/svg">
  <path
    d="M24.294 9.88081C24.1956 9.57753 24.0101 9.3099 23.7607 9.11125C23.5113 8.9126 23.209 8.7917 22.8914 8.76363L16.8596 8.24362L14.4952 2.62113C14.3721 2.3261 14.1645 2.0741 13.8985 1.89684C13.6324 1.71958 13.3199 1.625 13.0002 1.625C12.6805 1.625 12.368 1.71958 12.102 1.89684C11.836 2.0741 11.6283 2.3261 11.5052 2.62113L9.14795 8.24362L3.10905 8.76667C2.79018 8.79347 2.48631 8.91381 2.23557 9.11261C1.98482 9.31141 1.79835 9.57982 1.69953 9.88417C1.60072 10.1885 1.59397 10.5153 1.68012 10.8235C1.76627 11.1316 1.94149 11.4075 2.18381 11.6165L6.7653 15.6201L5.39217 21.5656C5.31956 21.8767 5.34028 22.2023 5.45173 22.5018C5.56319 22.8012 5.76043 23.0611 6.01881 23.249C6.27718 23.437 6.58522 23.5445 6.90441 23.5584C7.2236 23.5722 7.53978 23.4916 7.81342 23.3267L12.9931 20.1782L18.184 23.3267C18.4576 23.4916 18.7738 23.5722 19.093 23.5584C19.4122 23.5445 19.7202 23.437 19.9786 23.249C20.237 23.0611 20.4342 22.8012 20.5457 22.5018C20.6571 22.2023 20.6778 21.8767 20.6052 21.5656L19.2331 15.614L23.8136 11.6165C24.0559 11.4068 24.2307 11.1301 24.3162 10.8213C24.4017 10.5125 24.394 10.1853 24.294 9.88081ZM22.7482 10.3886L18.1677 14.3861C17.9448 14.58 17.7789 14.8311 17.688 15.1122C17.5971 15.3933 17.5846 15.6939 17.6518 15.9817L19.028 21.9373L13.8412 18.7889C13.5881 18.6348 13.2975 18.5532 13.0012 18.5532C12.7049 18.5532 12.4144 18.6348 12.1613 18.7889L6.98162 21.9373L8.34866 15.9857C8.41584 15.698 8.4033 15.3974 8.31239 15.1163C8.22149 14.8351 8.05565 14.5841 7.83272 14.3902L3.25022 10.3947C3.24985 10.3917 3.24985 10.3886 3.25022 10.3856L9.28709 9.86355C9.58183 9.83757 9.86388 9.73161 10.1028 9.5571C10.3418 9.3826 10.5285 9.14617 10.643 8.87331L13.0002 3.25792L15.3565 8.87331C15.4709 9.14617 15.6577 9.3826 15.8966 9.5571C16.1355 9.73161 16.4176 9.83757 16.7123 9.86355L22.7502 10.3856C22.7502 10.3856 22.7502 10.3917 22.7502 10.3927L22.7482 10.3886Z"
    fill="#06425D" />
</svg>