<svg width="16" height="14" viewBox="0 0 16 14" fill="none" xmlns="http://www.w3.org/2000/svg">
  <path
    d="M15.9866 8.19L15.1294 1.47C15.0772 1.06392 14.8756 0.690479 14.5623 0.419809C14.249 0.14914 13.8457 -0.000140391 13.4281 9.90728e-08H1.14281C0.839722 9.90728e-08 0.549042 0.118 0.334723 0.32804C0.120403 0.538081 0 0.822958 0 1.12V7.28C0 7.57704 0.120403 7.86192 0.334723 8.07196C0.549042 8.282 0.839722 8.4 1.14281 8.4H4.21842L6.91689 13.6906C6.96439 13.7836 7.0374 13.8619 7.12773 13.9165C7.21806 13.9712 7.32214 14.0001 7.4283 14C8.18603 14 8.91273 13.705 9.44853 13.1799C9.98433 12.6548 10.2853 11.9426 10.2853 11.2V10.08H14.2852C14.5284 10.0801 14.7689 10.0294 14.9907 9.93139C15.2124 9.83336 15.4103 9.6902 15.5712 9.51143C15.7322 9.33266 15.8524 9.12237 15.924 8.89453C15.9957 8.66669 16.017 8.42653 15.9866 8.19ZM3.99985 7.28H1.14281V1.12H3.99985V7.28ZM14.7137 8.7703C14.6605 8.83033 14.5946 8.87837 14.5206 8.91111C14.4467 8.94386 14.3664 8.96053 14.2852 8.96H9.71393C9.56238 8.96 9.41704 9.019 9.30988 9.12402C9.20272 9.22904 9.14252 9.37148 9.14252 9.52V11.2C9.14263 11.5884 9.00541 11.9649 8.7542 12.2653C8.503 12.5657 8.15334 12.7716 7.76471 12.8478L5.14267 7.7077V1.12H13.4281C13.5673 1.11995 13.7017 1.16971 13.8061 1.25994C13.9106 1.35016 13.9778 1.47464 13.9952 1.61L14.8523 8.33C14.863 8.40884 14.8562 8.48902 14.8323 8.56503C14.8083 8.64103 14.7679 8.71106 14.7137 8.7703Z"
    fill="#ED457E" />
</svg>