<svg width="19" height="19" viewBox="0 0 19 19" fill="none" xmlns="http://www.w3.org/2000/svg">
  <path
    d="M17.3672 5.94641C17.2 5.75694 16.9944 5.60522 16.7641 5.50132C16.5337 5.39741 16.2839 5.3437 16.0312 5.34375H11.875V4.15625C11.875 3.36889 11.5622 2.61378 11.0055 2.05703C10.4487 1.50028 9.69361 1.1875 8.90625 1.1875C8.79594 1.18742 8.6878 1.21807 8.59393 1.27601C8.50007 1.33396 8.42421 1.4169 8.37484 1.51555L5.57086 7.125H2.375C2.06006 7.125 1.75801 7.25011 1.53531 7.47281C1.31261 7.69551 1.1875 7.99756 1.1875 8.3125V14.8438C1.1875 15.1587 1.31261 15.4607 1.53531 15.6834C1.75801 15.9061 2.06006 16.0312 2.375 16.0312H15.1406C15.5746 16.0314 15.9937 15.8731 16.3192 15.5861C16.6447 15.2992 16.8543 14.9032 16.9085 14.4727L17.7991 7.34766C17.8307 7.09681 17.8085 6.84212 17.734 6.60052C17.6596 6.35892 17.5345 6.13594 17.3672 5.94641ZM2.375 8.3125H5.34375V14.8438H2.375V8.3125ZM16.6205 7.19922L15.7299 14.3242C15.7118 14.4677 15.642 14.5997 15.5335 14.6954C15.425 14.791 15.2853 14.8438 15.1406 14.8438H6.53125V7.85902L9.25582 2.40914C9.65964 2.48996 10.023 2.70821 10.284 3.02675C10.545 3.34528 10.6876 3.74442 10.6875 4.15625V5.9375C10.6875 6.09497 10.7501 6.24599 10.8614 6.35734C10.9728 6.46869 11.1238 6.53125 11.2812 6.53125H16.0312C16.1155 6.53122 16.1988 6.54912 16.2756 6.58377C16.3524 6.61842 16.421 6.66901 16.4767 6.73219C16.5324 6.79538 16.5741 6.8697 16.5989 6.95022C16.6237 7.03074 16.6311 7.11562 16.6205 7.19922Z"
    fill="#3B82F6" />
</svg>